<mxfile host="app.diagrams.net" modified="2023-04-21T15:58:30.309Z" agent="Mozilla/5.0 (Windows NT 10.0; Win64; x64) AppleWebKit/537.36 (KHTML, like Gecko) Chrome/112.0.0.0 Safari/537.36" etag="iFn-Tvhi69kNp6W1NnHz" version="21.2.1" type="github">
  <diagram name="Page-1" id="c7558073-3199-34d8-9f00-42111426c3f3">
    <mxGraphModel dx="880" dy="452" grid="1" gridSize="10" guides="1" tooltips="1" connect="1" arrows="1" fold="1" page="1" pageScale="1" pageWidth="826" pageHeight="1169" background="none" math="0" shadow="0">
      <root>
        <mxCell id="0" />
        <mxCell id="1" parent="0" />
        <mxCell id="u2j_IW3laRriKSuZbmPG-135" style="edgeStyle=orthogonalEdgeStyle;rounded=0;orthogonalLoop=1;jettySize=auto;html=1;exitX=1;exitY=0.5;exitDx=0;exitDy=0;entryX=1;entryY=0.75;entryDx=0;entryDy=0;strokeWidth=2;" edge="1" parent="1" source="u2j_IW3laRriKSuZbmPG-108" target="u2j_IW3laRriKSuZbmPG-121">
          <mxGeometry relative="1" as="geometry">
            <Array as="points">
              <mxPoint x="760" y="660" />
              <mxPoint x="760" y="905" />
            </Array>
          </mxGeometry>
        </mxCell>
        <mxCell id="u2j_IW3laRriKSuZbmPG-108" value="" style="rounded=1;whiteSpace=wrap;html=1;dashed=1;dashPattern=8 8;" vertex="1" parent="1">
          <mxGeometry x="470" y="570" width="250" height="180" as="geometry" />
        </mxCell>
        <mxCell id="u2j_IW3laRriKSuZbmPG-122" style="edgeStyle=orthogonalEdgeStyle;rounded=0;orthogonalLoop=1;jettySize=auto;html=1;exitX=0;exitY=0.75;exitDx=0;exitDy=0;entryX=0;entryY=0.5;entryDx=0;entryDy=0;strokeWidth=2;" edge="1" parent="1" source="u2j_IW3laRriKSuZbmPG-106" target="u2j_IW3laRriKSuZbmPG-120">
          <mxGeometry relative="1" as="geometry" />
        </mxCell>
        <mxCell id="u2j_IW3laRriKSuZbmPG-134" style="edgeStyle=orthogonalEdgeStyle;rounded=0;orthogonalLoop=1;jettySize=auto;html=1;exitX=1;exitY=0.5;exitDx=0;exitDy=0;entryX=1;entryY=0.25;entryDx=0;entryDy=0;strokeWidth=2;" edge="1" parent="1" source="u2j_IW3laRriKSuZbmPG-106" target="u2j_IW3laRriKSuZbmPG-120">
          <mxGeometry relative="1" as="geometry" />
        </mxCell>
        <mxCell id="u2j_IW3laRriKSuZbmPG-106" value="" style="rounded=1;whiteSpace=wrap;html=1;dashed=1;dashPattern=8 8;" vertex="1" parent="1">
          <mxGeometry x="470" y="370" width="250" height="180" as="geometry" />
        </mxCell>
        <mxCell id="u2j_IW3laRriKSuZbmPG-115" style="edgeStyle=orthogonalEdgeStyle;rounded=0;orthogonalLoop=1;jettySize=auto;html=1;exitX=1;exitY=0.5;exitDx=0;exitDy=0;entryX=0;entryY=0.5;entryDx=0;entryDy=0;strokeWidth=2;" edge="1" parent="1" source="u2j_IW3laRriKSuZbmPG-96" target="u2j_IW3laRriKSuZbmPG-110">
          <mxGeometry relative="1" as="geometry" />
        </mxCell>
        <mxCell id="u2j_IW3laRriKSuZbmPG-96" value="grafana-prod" style="rounded=1;whiteSpace=wrap;html=1;" vertex="1" parent="1">
          <mxGeometry x="10" y="550" width="120" height="60" as="geometry" />
        </mxCell>
        <mxCell id="u2j_IW3laRriKSuZbmPG-97" value="grafana-dev" style="rounded=1;whiteSpace=wrap;html=1;" vertex="1" parent="1">
          <mxGeometry x="10" y="1000" width="120" height="60" as="geometry" />
        </mxCell>
        <mxCell id="u2j_IW3laRriKSuZbmPG-98" value="dramon-history-store-gtw-prod" style="rounded=0;whiteSpace=wrap;html=1;" vertex="1" parent="1">
          <mxGeometry x="490" y="465" width="210" height="30" as="geometry" />
        </mxCell>
        <mxCell id="u2j_IW3laRriKSuZbmPG-99" value="dramon-short-term-store-gtw-prod" style="rounded=0;whiteSpace=wrap;html=1;" vertex="1" parent="1">
          <mxGeometry x="490" y="425" width="210" height="30" as="geometry" />
        </mxCell>
        <mxCell id="u2j_IW3laRriKSuZbmPG-100" value="dramon-recent-store-gtw-prod" style="rounded=0;whiteSpace=wrap;html=1;" vertex="1" parent="1">
          <mxGeometry x="490" y="385" width="210" height="30" as="geometry" />
        </mxCell>
        <mxCell id="u2j_IW3laRriKSuZbmPG-101" value="dramon-mid-term-store-gtw-prod" style="rounded=0;whiteSpace=wrap;html=1;" vertex="1" parent="1">
          <mxGeometry x="490" y="505" width="210" height="30" as="geometry" />
        </mxCell>
        <mxCell id="u2j_IW3laRriKSuZbmPG-102" value="dramon-recent-store-gtw-dev" style="rounded=0;whiteSpace=wrap;html=1;" vertex="1" parent="1">
          <mxGeometry x="490" y="585" width="210" height="30" as="geometry" />
        </mxCell>
        <mxCell id="u2j_IW3laRriKSuZbmPG-103" value="dramon-history-store-gtw-dev" style="rounded=0;whiteSpace=wrap;html=1;" vertex="1" parent="1">
          <mxGeometry x="490" y="620" width="210" height="30" as="geometry" />
        </mxCell>
        <mxCell id="u2j_IW3laRriKSuZbmPG-104" value="dramon-mid-term-store-gtw-dev" style="rounded=0;whiteSpace=wrap;html=1;" vertex="1" parent="1">
          <mxGeometry x="490" y="660" width="210" height="30" as="geometry" />
        </mxCell>
        <mxCell id="u2j_IW3laRriKSuZbmPG-105" value="dramon-short-term-store-gtw-dev" style="rounded=0;whiteSpace=wrap;html=1;" vertex="1" parent="1">
          <mxGeometry x="490" y="700" width="210" height="30" as="geometry" />
        </mxCell>
        <mxCell id="u2j_IW3laRriKSuZbmPG-133" style="edgeStyle=orthogonalEdgeStyle;rounded=0;orthogonalLoop=1;jettySize=auto;html=1;exitX=0.5;exitY=1;exitDx=0;exitDy=0;entryX=0;entryY=0.75;entryDx=0;entryDy=0;strokeWidth=2;" edge="1" parent="1" source="u2j_IW3laRriKSuZbmPG-109" target="u2j_IW3laRriKSuZbmPG-120">
          <mxGeometry relative="1" as="geometry" />
        </mxCell>
        <mxCell id="u2j_IW3laRriKSuZbmPG-109" value="minio" style="rounded=1;whiteSpace=wrap;html=1;" vertex="1" parent="1">
          <mxGeometry x="360" y="665" width="60" height="60" as="geometry" />
        </mxCell>
        <mxCell id="u2j_IW3laRriKSuZbmPG-116" style="edgeStyle=orthogonalEdgeStyle;rounded=0;orthogonalLoop=1;jettySize=auto;html=1;exitX=1;exitY=0.5;exitDx=0;exitDy=0;entryX=0;entryY=0.639;entryDx=0;entryDy=0;entryPerimeter=0;strokeWidth=2;" edge="1" parent="1" source="u2j_IW3laRriKSuZbmPG-110" target="u2j_IW3laRriKSuZbmPG-106">
          <mxGeometry relative="1" as="geometry" />
        </mxCell>
        <mxCell id="u2j_IW3laRriKSuZbmPG-119" style="edgeStyle=orthogonalEdgeStyle;rounded=0;orthogonalLoop=1;jettySize=auto;html=1;exitX=1;exitY=0.75;exitDx=0;exitDy=0;entryX=-0.004;entryY=0.367;entryDx=0;entryDy=0;entryPerimeter=0;strokeWidth=2;" edge="1" parent="1" source="u2j_IW3laRriKSuZbmPG-110" target="u2j_IW3laRriKSuZbmPG-108">
          <mxGeometry relative="1" as="geometry" />
        </mxCell>
        <mxCell id="u2j_IW3laRriKSuZbmPG-127" style="edgeStyle=orthogonalEdgeStyle;rounded=0;orthogonalLoop=1;jettySize=auto;html=1;exitX=0.5;exitY=1;exitDx=0;exitDy=0;entryX=0.5;entryY=0;entryDx=0;entryDy=0;strokeWidth=2;" edge="1" parent="1" source="u2j_IW3laRriKSuZbmPG-110" target="u2j_IW3laRriKSuZbmPG-111">
          <mxGeometry relative="1" as="geometry" />
        </mxCell>
        <mxCell id="u2j_IW3laRriKSuZbmPG-110" value="dramon-frontend-prod" style="rounded=0;whiteSpace=wrap;html=1;" vertex="1" parent="1">
          <mxGeometry x="190" y="470" width="130" height="30" as="geometry" />
        </mxCell>
        <mxCell id="u2j_IW3laRriKSuZbmPG-128" style="edgeStyle=orthogonalEdgeStyle;rounded=0;orthogonalLoop=1;jettySize=auto;html=1;exitX=0;exitY=0.5;exitDx=0;exitDy=0;entryX=0;entryY=0.5;entryDx=0;entryDy=0;strokeWidth=2;" edge="1" parent="1" source="u2j_IW3laRriKSuZbmPG-111" target="u2j_IW3laRriKSuZbmPG-113">
          <mxGeometry relative="1" as="geometry" />
        </mxCell>
        <mxCell id="u2j_IW3laRriKSuZbmPG-111" value="dramon-query-fuse" style="rounded=0;whiteSpace=wrap;html=1;" vertex="1" parent="1">
          <mxGeometry x="190" y="520" width="130" height="30" as="geometry" />
        </mxCell>
        <mxCell id="u2j_IW3laRriKSuZbmPG-112" value="&lt;p style=&quot;margin-top: 0pt; margin-bottom: 0pt; margin-left: 0in; direction: ltr; unicode-bidi: embed; word-break: normal;&quot;&gt;prometheus-server&lt;/p&gt;" style="rounded=0;whiteSpace=wrap;html=1;" vertex="1" parent="1">
          <mxGeometry x="190" y="615" width="130" height="30" as="geometry" />
        </mxCell>
        <mxCell id="u2j_IW3laRriKSuZbmPG-129" style="edgeStyle=orthogonalEdgeStyle;rounded=0;orthogonalLoop=1;jettySize=auto;html=1;exitX=0.5;exitY=0;exitDx=0;exitDy=0;entryX=0.5;entryY=1;entryDx=0;entryDy=0;strokeWidth=2;" edge="1" parent="1" source="u2j_IW3laRriKSuZbmPG-113" target="u2j_IW3laRriKSuZbmPG-112">
          <mxGeometry relative="1" as="geometry" />
        </mxCell>
        <mxCell id="u2j_IW3laRriKSuZbmPG-132" style="edgeStyle=orthogonalEdgeStyle;rounded=0;orthogonalLoop=1;jettySize=auto;html=1;exitX=1;exitY=0.5;exitDx=0;exitDy=0;entryX=0;entryY=0.5;entryDx=0;entryDy=0;strokeWidth=2;" edge="1" parent="1" source="u2j_IW3laRriKSuZbmPG-113" target="u2j_IW3laRriKSuZbmPG-109">
          <mxGeometry relative="1" as="geometry" />
        </mxCell>
        <mxCell id="u2j_IW3laRriKSuZbmPG-113" value="&lt;p style=&quot;margin-top: 0pt; margin-bottom: 0pt; margin-left: 0in; direction: ltr; unicode-bidi: embed; word-break: normal;&quot;&gt;thanos-sidecar&lt;/p&gt;" style="rounded=0;whiteSpace=wrap;html=1;" vertex="1" parent="1">
          <mxGeometry x="190" y="680" width="130" height="30" as="geometry" />
        </mxCell>
        <mxCell id="u2j_IW3laRriKSuZbmPG-120" value="prod&amp;nbsp;bucket" style="rounded=0;whiteSpace=wrap;html=1;" vertex="1" parent="1">
          <mxGeometry x="530" y="780" width="120" height="60" as="geometry" />
        </mxCell>
        <mxCell id="u2j_IW3laRriKSuZbmPG-121" value="dev bucket" style="rounded=0;whiteSpace=wrap;html=1;" vertex="1" parent="1">
          <mxGeometry x="530" y="860" width="120" height="60" as="geometry" />
        </mxCell>
        <mxCell id="u2j_IW3laRriKSuZbmPG-125" style="edgeStyle=orthogonalEdgeStyle;rounded=0;orthogonalLoop=1;jettySize=auto;html=1;exitX=0.5;exitY=1;exitDx=0;exitDy=0;entryX=1;entryY=0.5;entryDx=0;entryDy=0;strokeWidth=2;" edge="1" parent="1" source="u2j_IW3laRriKSuZbmPG-123" target="u2j_IW3laRriKSuZbmPG-120">
          <mxGeometry relative="1" as="geometry" />
        </mxCell>
        <mxCell id="u2j_IW3laRriKSuZbmPG-123" value="&lt;p style=&quot;margin-top: 0pt; margin-bottom: 0pt; margin-left: 0in; direction: ltr; unicode-bidi: embed; word-break: normal;&quot;&gt;compact-prod&lt;/p&gt;" style="rounded=0;whiteSpace=wrap;html=1;" vertex="1" parent="1">
          <mxGeometry x="770" y="620" width="120" height="60" as="geometry" />
        </mxCell>
        <mxCell id="u2j_IW3laRriKSuZbmPG-126" style="edgeStyle=orthogonalEdgeStyle;rounded=0;orthogonalLoop=1;jettySize=auto;html=1;exitX=0.5;exitY=1;exitDx=0;exitDy=0;entryX=1;entryY=0.25;entryDx=0;entryDy=0;strokeWidth=2;" edge="1" parent="1" source="u2j_IW3laRriKSuZbmPG-124" target="u2j_IW3laRriKSuZbmPG-121">
          <mxGeometry relative="1" as="geometry" />
        </mxCell>
        <mxCell id="u2j_IW3laRriKSuZbmPG-124" value="&lt;p style=&quot;margin-top: 0pt; margin-bottom: 0pt; margin-left: 0in; direction: ltr; unicode-bidi: embed; word-break: normal;&quot;&gt;compact-dev&lt;/p&gt;" style="rounded=0;whiteSpace=wrap;html=1;" vertex="1" parent="1">
          <mxGeometry x="930" y="620" width="120" height="60" as="geometry" />
        </mxCell>
      </root>
    </mxGraphModel>
  </diagram>
</mxfile>
